<?xml version="1.0" encoding="utf-8"?>
<!-- Generator: Adobe Illustrator 27.0.0, SVG Export Plug-In . SVG Version: 6.00 Build 0)  -->
<svg version="1.1" id="Layer_1" xmlns="http://www.w3.org/2000/svg" xmlns:xlink="http://www.w3.org/1999/xlink" x="0px" y="0px"
	 viewBox="0 0 900 344" style="enable-background:new 0 0 900 344;" xml:space="preserve">
<style type="text/css">
	.st0{opacity:0.33;}
	.st1{fill:#213419;}
	.st2{fill:#1F855C;}
</style>
<g class="st0">
	<polygon class="st1" points="415.9,280.6 450,221.5 484.1,280.6 510.1,325.5 619.6,325.5 534.8,178.7 450,31.8 365.2,178.7 
		280.4,325.5 390,325.5 	"/>
	<polygon class="st2" points="415.9,271.2 450,212.1 484.1,271.2 510.1,316.1 619.6,316.1 534.8,169.3 450,22.4 365.2,169.3 
		280.4,316.1 390,316.1 	"/>
</g>
<g>
	<g>
		<path class="st1" d="M379.9,218.4h-19v32.2h-45.9v-32.2h-74.2V175l67.5-104.1h49.3l-72.2,112h29.7v-35.6h45.9v35.6h19V218.4z"/>
		<path class="st1" d="M509.8,215.9c0,21-11.2,34.7-41.1,34.7h-37.2c-30,0-41.1-13.7-41.1-34.7V105.6c0-21,11.2-34.7,41.1-34.7h37.2
			c30,0,41.1,13.7,41.1,34.7V215.9z M460.8,112c0-4.2-2.2-6.2-7-6.2h-7.6c-4.8,0-7,2-7,6.2v97.4c0,4.2,2.2,6.2,7,6.2h7.6
			c4.8,0,7-2,7-6.2V112z"/>
		<path class="st1" d="M662,218.4h-19v32.2h-45.9v-32.2h-74.2V175l67.5-104.1h49.3l-72.2,112h29.7v-35.6H643v35.6h19V218.4z"/>
	</g>
	<g>
		<path class="st2" d="M379.9,214.6h-19v32.2h-45.9v-32.2h-74.2v-43.4l67.5-104.1h49.3l-72.2,112h29.7v-35.6h45.9V179h19V214.6z"/>
		<path class="st2" d="M509.8,212.1c0,21-11.2,34.7-41.1,34.7h-37.2c-30,0-41.1-13.7-41.1-34.7V101.8c0-21,11.2-34.7,41.1-34.7h37.2
			c30,0,41.1,13.7,41.1,34.7V212.1z M460.8,108.2c0-4.2-2.2-6.2-7-6.2h-7.6c-4.8,0-7,2-7,6.2v97.4c0,4.2,2.2,6.2,7,6.2h7.6
			c4.8,0,7-2,7-6.2V108.2z"/>
		<path class="st2" d="M662,214.6h-19v32.2h-45.9v-32.2h-74.2v-43.4l67.5-104.1h49.3l-72.2,112h29.7v-35.6H643V179h19V214.6z"/>
	</g>
</g>
<g>
	<path class="st1" d="M155.5,302.1v5.9h-20v-35.6h19.5v5.9h-11.3v8.7h9.6v5.9h-9.6v9.3H155.5z"/>
	<path class="st1" d="M173.4,280.1v6.8h-2.8c-2.4,0-3.6,1.3-3.6,3.9V308h-8v-27.7h7.9v4c0.6-2.4,2.5-4.1,5.6-4.1H173.4z"/>
	<path class="st1" d="M190.5,280.1v6.8h-2.8c-2.4,0-3.6,1.3-3.6,3.9V308h-8v-27.7h7.9v4c0.6-2.4,2.5-4.1,5.6-4.1H190.5z"/>
	<path class="st1" d="M206.9,280.2c5.2,0,7.1,2.4,7.1,6.2v15.3c0,3.9-1.8,6.2-7.1,6.2H200c-5.2,0-7.1-2.4-7.1-6.2v-15.3
		c0-3.9,1.8-6.2,7.1-6.2H206.9z M206.1,287.2c0-1-0.4-1.4-1.6-1.4h-2.1c-1.2,0-1.6,0.4-1.6,1.4V301c0,1,0.4,1.4,1.6,1.4h2.1
		c1.2,0,1.6-0.4,1.6-1.4V287.2z"/>
	<path class="st1" d="M233,280.1v6.8h-2.8c-2.4,0-3.6,1.3-3.6,3.9V308h-8v-27.7h7.9v4c0.6-2.4,2.5-4.1,5.6-4.1H233z"/>
	<path class="st1" d="M259.9,280.2c4.7,0,6.7,2.4,6.7,6.2v15.3c0,3.9-2,6.2-6.7,6.2h-1.4c-2.4,0-3.9-1-4.5-2.7v10.2h-8v-35.2h7.9
		v3.1c0.5-2,2.1-3.1,4.6-3.1H259.9z M258.6,287.5c0-1-0.4-1.4-1.6-1.4h-1.4c-1.1,0-1.7,0.5-1.7,1.8v12.4c0,1.3,0.6,1.8,1.7,1.8h1.4
		c1.2,0,1.6-0.4,1.6-1.4V287.5z"/>
	<path class="st1" d="M291.1,280.2V308h-8v-2.7c-0.6,1.8-2.1,2.7-4.5,2.7h-1.4c-4.8,0-6.7-2.4-6.7-6.2v-15.3c0-3.9,2-6.2,6.7-6.2
		h1.4c2.6,0,4.1,1.1,4.7,3.1v-3.1H291.1z M281.4,302.1c1.2,0,1.7-0.5,1.7-1.8v-12.4c0-1.3-0.6-1.8-1.7-1.8H280
		c-1.2,0-1.6,0.4-1.6,1.4v13.2c0,1,0.4,1.4,1.6,1.4H281.4z"/>
	<path class="st1" d="M316.1,280.2v29c0,3.9-2.1,6.2-7.3,6.2h-12.2v-5.7h9.9c1.1,0,1.6-0.3,1.6-1.4V304c-0.6,1.8-2.1,2.7-4.5,2.7
		h-1.4c-4.8,0-6.7-2.4-6.7-6.2v-14.1c0-3.9,2-6.2,6.7-6.2h1.4c2.6,0,4.1,1.1,4.7,3.1v-3.1H316.1z M306.4,300.9
		c1.2,0,1.7-0.5,1.7-1.8v-11.2c0-1.3-0.6-1.8-1.7-1.8H305c-1.2,0-1.6,0.4-1.6,1.4v12c0,1,0.4,1.4,1.6,1.4H306.4z"/>
	<path class="st1" d="M334.3,280.2c5.2,0,7.3,2.4,7.3,6.2v9.8h-13.4v4.8c0,1,0.4,1.3,1.6,1.3h2.6c1.1,0,1.5-0.4,1.5-1.5v-1.8h7.7
		v2.7c0,3.9-2.1,6.2-7.3,6.2h-6.4c-5.2,0-7.3-2.4-7.3-6.2v-15.3c0-3.9,2-6.2,7.3-6.2H334.3z M333.9,291.7v-4.5c0-1-0.4-1.3-1.5-1.3
		h-2.6c-1.2,0-1.6,0.3-1.6,1.3v4.5H333.9z"/>
	<path class="st1" d="M369.8,280.2c4.7,0,6.7,2.4,6.7,6.2V308h-8.1v-20.4c0-1-0.4-1.4-1.6-1.4h-1.4c-1.1,0-1.7,0.5-1.7,1.8v20h-8
		v-27.7h7.9v3.1c0.5-2,2.1-3.1,4.6-3.1H369.8z"/>
	<path class="st1" d="M394.8,280.2c5.2,0,7.1,2.4,7.1,6.2v15.3c0,3.9-1.8,6.2-7.1,6.2H388c-5.2,0-7.1-2.4-7.1-6.2v-15.3
		c0-3.9,1.8-6.2,7.1-6.2H394.8z M394,287.2c0-1-0.4-1.4-1.6-1.4h-2.1c-1.2,0-1.6,0.4-1.6,1.4V301c0,1,0.4,1.4,1.6,1.4h2.1
		c1.2,0,1.6-0.4,1.6-1.4V287.2z"/>
	<path class="st1" d="M415.3,286.1v14.5c0,1,0.5,1.3,1.6,1.3h2.2v6h-4.5c-5.2,0-7.3-2.4-7.3-6.2v-15.6h-3v-5.9h3v-5.2h8v5.2h3.7v5.9
		H415.3z"/>
	<path class="st1" d="M442.9,276.3c-1.2,0-1.6,0.4-1.6,1.4v2.6h4.4v5.9h-4.4V308h-8v-21.8h-2.9v-5.9h2.9v-3.6c0-3.8,2-6.2,7.3-6.2
		h5.1v5.8H442.9z"/>
	<path class="st1" d="M462.1,280.2c5.2,0,7.1,2.4,7.1,6.2v15.3c0,3.9-1.8,6.2-7.1,6.2h-6.9c-5.2,0-7.1-2.4-7.1-6.2v-15.3
		c0-3.9,1.8-6.2,7.1-6.2H462.1z M461.3,287.2c0-1-0.4-1.4-1.6-1.4h-2.1c-1.2,0-1.6,0.4-1.6,1.4V301c0,1,0.4,1.4,1.6,1.4h2.1
		c1.2,0,1.6-0.4,1.6-1.4V287.2z"/>
	<path class="st1" d="M494.1,280.2V308h-7.9v-3.1c-0.5,2-2.1,3.1-4.7,3.1h-1.4c-4.8,0-6.7-2.4-6.7-6.2v-21.5h8.1v20.4
		c0,1,0.4,1.4,1.6,1.4h1.3c1.2,0,1.7-0.5,1.7-1.8v-20H494.1z"/>
	<path class="st1" d="M512.9,280.2c4.7,0,6.7,2.4,6.7,6.2V308h-8.1v-20.4c0-1-0.4-1.4-1.6-1.4h-1.4c-1.1,0-1.7,0.5-1.7,1.8v20h-8
		v-27.7h7.9v3.1c0.5-2,2.1-3.1,4.6-3.1H512.9z"/>
	<path class="st1" d="M544.4,270.5V308h-7.9v-3.1c-0.5,2-2.1,3.1-4.7,3.1h-1.4c-4.8,0-6.7-2.4-6.7-6.2v-15.3c0-3.8,2-6.2,6.7-6.2
		h1.4c2.4,0,4,1,4.5,2.7v-12.5H544.4z M534.6,302.1c1.2,0,1.7-0.5,1.7-1.8v-12.4c0-1.3-0.6-1.8-1.7-1.8h-1.3c-1.2,0-1.6,0.3-1.6,1.4
		v13.2c0,1,0.4,1.4,1.6,1.4H534.6z"/>
	<path class="st1" d="M557.3,299.7v4.5l-5.8,11.9h-2.6v-16.4H557.3z"/>
	<path class="st1" d="M592.3,280.2v29c0,3.9-2.1,6.2-7.3,6.2h-12.2v-5.7h9.9c1.1,0,1.6-0.3,1.6-1.4V304c-0.6,1.8-2.1,2.7-4.5,2.7
		h-1.4c-4.8,0-6.7-2.4-6.7-6.2v-14.1c0-3.9,2-6.2,6.7-6.2h1.4c2.6,0,4.1,1.1,4.7,3.1v-3.1H592.3z M582.5,300.9
		c1.2,0,1.7-0.5,1.7-1.8v-11.2c0-1.3-0.6-1.8-1.7-1.8h-1.3c-1.2,0-1.6,0.4-1.6,1.4v12c0,1,0.4,1.4,1.6,1.4H582.5z"/>
	<path class="st1" d="M610.7,280.2c5.2,0,7.1,2.4,7.1,6.2v15.3c0,3.9-1.8,6.2-7.1,6.2h-6.9c-5.2,0-7.1-2.4-7.1-6.2v-15.3
		c0-3.9,1.8-6.2,7.1-6.2H610.7z M609.9,287.2c0-1-0.4-1.4-1.6-1.4h-2.1c-1.2,0-1.6,0.4-1.6,1.4V301c0,1,0.4,1.4,1.6,1.4h2.1
		c1.2,0,1.6-0.4,1.6-1.4V287.2z"/>
	<path class="st1" d="M646.6,280.2c4.7,0,6.7,2.4,6.7,6.2v15.3c0,3.9-2,6.2-6.7,6.2h-1.4c-2.5,0-4.1-1.1-4.6-3.1v3.1h-7.9v-37.5h8
		V283c0.6-1.8,2.1-2.7,4.5-2.7H646.6z M645.3,287.5c0-1.1-0.4-1.4-1.6-1.4h-1.4c-1.1,0-1.7,0.5-1.7,1.8v12.4c0,1.3,0.6,1.8,1.7,1.8
		h1.4c1.2,0,1.6-0.4,1.6-1.4V287.5z"/>
	<path class="st1" d="M677.8,280.2V308h-8v-2.7c-0.6,1.8-2.1,2.7-4.5,2.7h-1.4c-4.8,0-6.7-2.4-6.7-6.2v-15.3c0-3.9,2-6.2,6.7-6.2
		h1.4c2.6,0,4.1,1.1,4.7,3.1v-3.1H677.8z M668.1,302.1c1.2,0,1.7-0.5,1.7-1.8v-12.4c0-1.3-0.6-1.8-1.7-1.8h-1.3
		c-1.2,0-1.6,0.4-1.6,1.4v13.2c0,1,0.4,1.4,1.6,1.4H668.1z"/>
	<path class="st1" d="M694.8,290.2v-2.7c0-1-0.4-1.4-1.6-1.4h-1.5c-1.2,0-1.6,0.4-1.6,1.4v13.2c0,1,0.4,1.4,1.6,1.4h1.5
		c1.2,0,1.6-0.4,1.6-1.4V298h7.8v3.8c0,3.9-2.1,6.2-7.3,6.2h-5.9c-5.2,0-7.3-2.4-7.3-6.2v-15.3c0-3.9,2.1-6.2,7.3-6.2h5.9
		c5.2,0,7.3,2.4,7.3,6.2v3.8H694.8z"/>
	<path class="st1" d="M706.4,270.5h8V308h-8V270.5z M722.6,293.7l6.3,14.2h-8.4l-6-14.2l6-13.5h8.3L722.6,293.7z"/>
	<path class="st1" d="M730.9,299.7h8.3v8.3h-8.3V299.7z"/>
	<path class="st1" d="M743.5,299.7h8.3v8.3h-8.3V299.7z"/>
	<path class="st1" d="M756.1,299.7h8.3v8.3h-8.3V299.7z"/>
</g>
</svg>
