<?xml version="1.0" encoding="utf-8"?>
<!-- Generator: Adobe Illustrator 27.0.0, SVG Export Plug-In . SVG Version: 6.00 Build 0)  -->
<svg version="1.1" id="Layer_1" xmlns="http://www.w3.org/2000/svg" xmlns:xlink="http://www.w3.org/1999/xlink" x="0px" y="0px"
	 viewBox="0 0 900 344" style="enable-background:new 0 0 900 344;" xml:space="preserve">
<style type="text/css">
	.st0{opacity:0.33;}
	.st1{fill:#213419;}
	.st2{fill:#1F855C;}
	.st3{font-family:'Teko-Bold';}
	.st4{font-size:279.9178px;}
	.st5{font-family:'Teko-SemiBold';}
	.st6{font-size:56px;}
</style>
<g class="st0">
	<polygon class="st1" points="415.9,280.6 450,221.5 484.1,280.6 510.1,325.5 619.6,325.5 534.8,178.7 450,31.8 365.2,178.7 
		280.4,325.5 390,325.5 	"/>
	<polygon class="st2" points="415.9,271.2 450,212.1 484.1,271.2 510.1,316.1 619.6,316.1 534.8,169.3 450,22.4 365.2,169.3 
		280.4,316.1 390,316.1 	"/>
</g>
<g>
	<text transform="matrix(1 0 0 1 237.967 250.5947)" class="st1 st3 st4">404</text>
	<text transform="matrix(1 0 0 1 237.9666 246.7773)" class="st2 st3 st4">404</text>
</g>
<text transform="matrix(1.0279 0 0 1 132.9695 307.9682)" class="st1 st5 st6">Error page not found, go back...</text>
</svg>
