<?xml version="1.0" encoding="utf-8"?>
<!-- Generator: Adobe Illustrator 27.0.0, SVG Export Plug-In . SVG Version: 6.00 Build 0)  -->
<svg version="1.1" id="Layer_1" xmlns="http://www.w3.org/2000/svg" xmlns:xlink="http://www.w3.org/1999/xlink" x="0px" y="0px"
	 viewBox="0 0 358.55 70.27" style="enable-background:new 0 0 358.55 70.27;" xml:space="preserve">
<style type="text/css">
	.st0{fill:#213419;}
</style>
<g>
	<path class="st0" d="M23.23,54.73H11.58L9.72,66.54H0L10.73,9.65h13.1l11.24,56.89h-9.8L23.23,54.73z M21.88,46.89l-4.65-27.23
		l-4.39,27.23H21.88z"/>
	<path class="st0" d="M59.39,9.65c6.51,0,9.21,3.25,9.21,8.93V36.7c0,5.59-2.7,8.93-9.21,8.93h-9.89v20.92h-9.72V9.65H59.39z
		 M58.89,20.02c0-1.89-0.51-2.43-2.37-2.43h-7.01v20.11h7.01c1.86,0,2.37-0.54,2.37-2.43V20.02z"/>
	<path class="st0" d="M100.87,58.61v7.93H74.85V9.65h25.35v7.93H84.65v15.78h13.1v8.02h-13.1v17.22H100.87z"/>
	<path class="st0" d="M137.28,66.54h-10.81l-6.67-19.93l-6.76,19.93h-10.39l11.74-29.03L103.24,9.65h10.9l5.66,18.75l5.66-18.75
		h10.48l-10.81,27.86L137.28,66.54z"/>
	<path class="st0" d="M173.27,27.14v-7.48c0-1.89-0.51-2.43-2.37-2.43h-3.97c-1.86,0-2.37,0.54-2.37,2.43v36.97
		c0,1.89,0.51,2.43,2.37,2.43h3.97c1.86,0,2.37-0.54,2.37-2.43V44h-4.22v-7.3h14.02v21.01c0,5.59-2.7,8.93-9.21,8.93h-9.88
		c-6.42,0-9.21-3.34-9.21-8.93V18.57c0-5.68,2.79-8.93,9.21-8.93h9.88c6.51,0,9.21,3.25,9.21,8.93v8.57H173.27z"/>
	<path class="st0" d="M208.67,48.24v18.3h-9.72V48.51L186.53,9.65h9.89l7.27,29.21l6.84-29.21h9.89L208.67,48.24z"/>
	<path class="st0" d="M240.43,54.19l-7.1-27.5v39.85h-8.62V9.65h10.65l8.96,33.81l8.96-33.81h10.65v56.89h-8.53V26.6l-7.1,27.59
		H240.43z"/>
</g>
<polygon class="st0" points="309.38,56.97 316.63,44.41 323.88,56.97 329.41,66.54 352.71,66.54 334.67,35.29 316.63,4.04 
	298.58,35.29 280.54,66.54 303.85,66.54 "/>
</svg>
